# xmcd CD database file
#
# Track frame offsets:
#	150
#	17020
#	34742
#	52632
#	75092
#	96145
#	115310
#	132425
#	150332
#	166975
#	185810
#
# Disc length: 2780 seconds
#
# Revision: 1
# Processed by: cddbd v1.5.2PL0 Copyright (c) Steve Scherf et al.
# Submitted via: CDex 1.70beta2
#
DISCID=780ada0b
DTITLE=Marianne and me - Women's Work
DYEAR=1900
DGENRE=Jazz
TTITLE0=All day
TTITLE1=You keep me feeling this way
TTITLE2=Marianne and me
TTITLE3=For a friend
TTITLE4=Six blade knife
TTITLE5=Never been
TTITLE6=Five seasons
TTITLE7=So many tears
TTITLE8=Got a way
TTITLE9=Wuthering heights
TTITLE10=Selma
EXTD=
EXTT0=
EXTT1=
EXTT2=
EXTT3=
EXTT4=
EXTT5=
EXTT6=
EXTT7=
EXTT8=
EXTT9=
EXTT10=
PLAYORDER=
